#N canvas 590 22 984 637 10;
#X declare -path .;
#X declare -path rj;
#X declare -path percsamples;
#X declare -path .;
#X declare -path rj;
#X declare -path .;
#X declare -path rj;
#X declare -path .;
#X declare -path rj;
#X declare -path .;
#X declare -path rj;
#X declare -path cpmlibs;
#X declare -path fieldrecordings;
#X obj 30 16 declare -path .;
#X obj 30 43 declare -path rj;
#X obj 35 79 r touch;
#X obj 704 194 r tapdistance;
#X obj 704 215 t b f;
#X msg 706 53 0;
#X msg 708 82 0.1;
#X msg 706 108 0.5;
#X msg 705 132 1;
#X msg 705 156 1.1;
#X obj 775 94 s tapdistance;
#X obj 796 256 r touchended;
#X obj 749 235 r touchvelocity;
#N canvas 727 49 477 425 clustermetro 0;
#X obj 303 241 bng 15 250 50 0 empty empty empty 17 7 0 10 -262144
-1 -1;
#X obj 247 264 + 1;
#X obj 211 109 t b b b b;
#X obj 201 15 bng 15 250 50 0 empty empty empty 17 7 0 10 -262144 -1
-1;
#X floatatom 256 287 5 0 0 0 - - -;
#X obj 247 244 random 6;
#X obj 67 123 delay 1000;
#X obj 66 97 random 8000;
#X obj 192 324 c_multimetro 16 200;
#X obj 192 298 tgl 15 0 empty empty empty 17 7 0 10 -262144 -1 -1 1
1;
#X obj 91 319 delay 10;
#X msg 149 325 stop;
#X floatatom 89 252 5 0 0 0 - - -;
#X obj 89 276 sel 15;
#X obj 83 299 bng 15 250 50 0 empty empty empty 17 7 0 10 -262144 -1
-1;
#X obj 102 297 t b;
#X msg 192 277 1;
#X obj 223 13 loadbang;
#X obj 192 346 outlet;
#X obj 157 14 inlet;
#N canvas 1012 38 445 814 createclusterrhythm 0;
#X obj 78 50 inlet;
#X obj 52 778 outlet;
#X obj 167 167 random 1000;
#X obj 167 187 + 50;
#X obj 68 140 t b b b b b b b b;
#X obj 148 211 random 1000;
#X obj 148 231 + 50;
#X obj 143 257 random 1000;
#X obj 143 277 + 50;
#X obj 122 296 random 1000;
#X obj 122 316 + 50;
#X obj 113 338 random 1000;
#X obj 113 358 + 50;
#X obj 104 382 random 1000;
#X obj 104 402 + 50;
#X obj 94 424 random 1000;
#X obj 94 444 + 50;
#X obj 93 478 list append;
#X obj 92 500 list append;
#X obj 95 522 list append;
#X obj 96 544 list append;
#X obj 94 567 list append;
#X obj 95 592 list append;
#X connect 0 0 4 0;
#X connect 2 0 3 0;
#X connect 3 0 22 1;
#X connect 4 1 15 0;
#X connect 4 2 13 0;
#X connect 4 3 11 0;
#X connect 4 4 9 0;
#X connect 4 5 7 0;
#X connect 4 6 5 0;
#X connect 4 7 2 0;
#X connect 5 0 6 0;
#X connect 6 0 21 1;
#X connect 7 0 8 0;
#X connect 8 0 20 1;
#X connect 9 0 10 0;
#X connect 10 0 19 1;
#X connect 11 0 12 0;
#X connect 12 0 18 1;
#X connect 13 0 14 0;
#X connect 14 0 17 1;
#X connect 15 0 16 0;
#X connect 16 0 17 0;
#X connect 17 0 18 0;
#X connect 18 0 19 0;
#X connect 19 0 20 0;
#X connect 20 0 21 0;
#X connect 21 0 22 0;
#X connect 22 0 1 0;
#X restore 303 262 pd createclusterrhythm;
#X obj 348 352 print rhythm:;
#X obj 46 124 bng 15 250 50 0 empty empty empty 17 7 0 10 -262144 -1
-1;
#X obj 345 321 spigot;
#X obj 374 293 tgl 15 0 empty empty empty 17 7 0 10 -262144 -1 -1 0
1;
#X connect 0 0 20 0;
#X connect 1 0 8 1;
#X connect 1 0 4 0;
#X connect 2 0 7 0;
#X connect 2 1 16 0;
#X connect 2 2 5 0;
#X connect 2 3 0 0;
#X connect 3 0 2 0;
#X connect 5 0 1 0;
#X connect 5 0 13 1;
#X connect 6 0 2 0;
#X connect 6 0 22 0;
#X connect 7 0 6 1;
#X connect 8 0 12 0;
#X connect 8 0 18 0;
#X connect 9 0 8 0;
#X connect 10 0 11 0;
#X connect 10 0 6 0;
#X connect 11 0 8 0;
#X connect 12 0 13 0;
#X connect 13 0 14 0;
#X connect 13 0 15 0;
#X connect 15 0 10 0;
#X connect 16 0 9 0;
#X connect 17 0 2 0;
#X connect 19 0 2 0;
#X connect 20 0 8 2;
#X connect 20 0 23 0;
#X connect 23 0 21 0;
#X connect 24 0 23 1;
#X restore 132 193 pd clustermetro;
#X obj 112 194 bng 15 250 50 0 empty empty empty 17 7 0 10 -262144
-1 -1;
#N canvas 326 601 450 300 sel01 0;
#X obj 122 3 inlet;
#X obj 247 31 sel 0;
#X msg 225 58 0;
#X msg 275 57 1;
#X obj 49 133 spigot;
#X obj 240 5 inlet;
#X obj 47 203 outlet;
#X obj 165 105 tgl 15 0 empty empty empty 17 7 0 10 -262144 -1 -1 0
1;
#X connect 0 0 4 0;
#X connect 1 0 2 0;
#X connect 1 1 3 0;
#X connect 2 0 7 0;
#X connect 3 0 7 0;
#X connect 4 0 6 0;
#X connect 5 0 1 0;
#X connect 7 0 4 1;
#X coords 0 -1 1 1 85 25 1 100 100;
#X restore 155 217 pd sel01;
#N canvas 792 254 806 369 cymbals 0;
#X obj 107 34 inlet;
#X obj 673 31 inlet;
#X obj 319 304 outlet~;
#X obj 369 303 outlet~;
#X obj 174 167 bng 15 250 50 0 empty empty empty 17 7 0 10 -262144
-1 -1;
#X floatatom 672 53 5 0 0 0 - - -;
#X obj 107 54 t b;
#X text 107 13 note;
#X text 667 7 note length;
#X text 495 255 volume;
#X obj 498 272 inlet;
#X obj 333 249 g_vol2;
#X obj 499 301 / 100;
#X obj 438 258 loadbang;
#X obj 440 308 * 1;
#X msg 438 280 97;
#N canvas 852 386 450 300 counter 0;
#X obj 28 19 inlet;
#X obj 98 73 + 1;
#X floatatom 45 97 5 0 0 0 - - -;
#X msg 95 119 set \$1;
#X obj 95 96 % 4;
#X obj 33 168 sel 0 1 2 3;
#X obj 22 245 outlet;
#X obj 58 242 outlet;
#X obj 102 239 outlet;
#X obj 147 238 outlet;
#X connect 0 0 2 0;
#X connect 1 0 4 0;
#X connect 2 0 1 0;
#X connect 2 0 5 0;
#X connect 3 0 2 0;
#X connect 4 0 3 0;
#X connect 5 0 6 0;
#X connect 5 1 7 0;
#X connect 5 2 8 0;
#X connect 5 3 9 0;
#X restore 292 65 pd counter;
#X obj 295 168 bng 15 250 50 0 empty empty empty 17 7 0 10 -262144
-1 -1;
#X obj 452 160 bng 15 250 50 0 empty empty empty 17 7 0 10 -262144
-1 -1;
#X obj 393 19 notein;
#N canvas 1026 543 488 330 note_distribute 0;
#X obj 89 26 inlet;
#X obj 153 27 inlet;
#X obj 45 258 outlet;
#X obj 103 50 pack f f;
#X obj 103 85 stripnote;
#X obj 127 257 outlet;
#X obj 244 260 outlet;
#X obj 313 257 outlet;
#X obj 248 106 + 1;
#X floatatom 195 130 5 0 0 0 - - -;
#X msg 245 152 set \$1;
#X obj 245 129 % 4;
#X obj 195 102 t b;
#X obj 84 210 route 0 1 2 3;
#X obj 98 145 pack f f;
#X obj 123 180 list prepend;
#N canvas 326 601 450 300 sel01 0;
#X obj 122 3 inlet;
#X obj 247 31 sel 0;
#X msg 225 58 0;
#X msg 275 57 1;
#X obj 49 133 spigot;
#X obj 240 5 inlet;
#X obj 47 203 outlet;
#X obj 165 105 tgl 15 0 empty empty empty 17 7 0 10 -262144 -1 -1 0
1;
#X connect 0 0 4 0;
#X connect 1 0 2 0;
#X connect 1 1 3 0;
#X connect 2 0 7 0;
#X connect 3 0 7 0;
#X connect 4 0 6 0;
#X connect 5 0 1 0;
#X connect 7 0 4 1;
#X coords 0 -1 1 1 85 25 1 100 100;
#X restore 231 48 pd sel01;
#X obj 331 23 inlet;
#X obj 340 91 loadbang;
#X msg 335 121 0;
#X connect 0 0 3 0;
#X connect 1 0 3 1;
#X connect 3 0 16 0;
#X connect 4 0 14 0;
#X connect 4 1 12 0;
#X connect 4 1 14 1;
#X connect 8 0 11 0;
#X connect 9 0 8 0;
#X connect 9 0 15 1;
#X connect 10 0 9 0;
#X connect 11 0 10 0;
#X connect 12 0 9 0;
#X connect 13 0 2 0;
#X connect 13 1 5 0;
#X connect 13 2 6 0;
#X connect 13 3 7 0;
#X connect 14 0 15 0;
#X connect 15 0 13 0;
#X connect 16 0 4 0;
#X connect 17 0 16 1;
#X connect 18 0 19 0;
#X connect 19 0 16 1;
#X restore 376 52 pd note_distribute;
#N canvas 374 229 620 665 cymbalSynth 0;
#X obj 32 16 inlet;
#X text 78 15 note velocity pairs;
#X obj 247 14 inlet;
#X text 288 14 random note bangs;
#X obj 32 41 unpack 0 0;
#X obj 64 62 / 127;
#X obj 64 85 s \$0-vel;
#X obj 402 129 bng 15 250 50 0 empty empty empty 17 7 0 10 -262144
-1 -1;
#X obj 57 399 *~;
#N canvas 227 330 516 558 env_perc_long 0;
#X obj 198 434 outlet~;
#X obj 13 16 inlet;
#X obj 196 327 / 127;
#X obj 196 366 t a a;
#X obj 157 260 * 127;
#X obj 117 259 t b a;
#X msg 116 280 60;
#X obj 349 21 inlet;
#X text 340 43 volume (0-1);
#X text 59 15 trigger - start envelope;
#X msg 118 153 1;
#X obj 118 131 t b;
#X obj 133 175 *;
#X obj 159 157 loadbang;
#X msg 159 176 1;
#X text 226 160 handle the volume scaling.;
#X text 249 287 setup a midi note (on then off);
#X text 325 355 calculate and send the env;
#X text 41 515 percussive envelope generator - cpm 2012;
#X obj 120 299 makenote 60 2000;
#X obj 435 20 inlet;
#X text 434 44 duration;
#X obj 198 411 c_adsr 1 300 2000 0 2000;
#X text 76 39 handle negative input to close env;
#X connect 1 0 11 0;
#X connect 2 0 3 0;
#X connect 3 0 22 0;
#X connect 3 1 22 1;
#X connect 4 0 19 1;
#X connect 5 0 6 0;
#X connect 5 1 4 0;
#X connect 6 0 19 0;
#X connect 7 0 12 1;
#X connect 10 0 12 0;
#X connect 11 0 10 0;
#X connect 12 0 5 0;
#X connect 13 0 14 0;
#X connect 14 0 12 1;
#X connect 19 1 2 0;
#X connect 20 0 19 2;
#X connect 20 0 22 3;
#X connect 22 0 0 0;
#X restore 147 376 pd env_perc_long;
#X obj 277 344 loadbang;
#X msg 265 368 1000;
#X obj 53 366 s_playtable;
#X obj 403 201 / 100;
#X obj 53 281 list prepend 1;
#X obj 53 302 list prepend 0-cym;
#X obj 403 225 + 0.1;
#X msg 224 269 1-cym;
#X msg 271 269 2-cym;
#X msg 183 270 0-cym;
#X obj 194 230 select 0 1;
#X obj 193 206 random 3;
#X floatatom 278 221 5 0 0 0 - - -;
#X msg 103 344 sr 44100;
#X obj 101 323 loadbang;
#X obj 163 353 r \$0-vel;
#X obj 33 108 t a b b;
#X obj 35 191 / 130.8;
#X obj 35 170 mtof;
#X obj 35 214 * 1;
#X obj 86 192 / 1000;
#X obj 85 172 random 15;
#X obj 85 212 + 0.99;
#X obj 33 140 t a b;
#X text 144 139 note;
#X obj 403 150 t b b b b;
#X msg 494 180 1;
#X obj 34 470 outlet~;
#X obj 102 470 outlet~;
#X obj 403 176 random 150;
#X connect 0 0 4 0;
#X connect 2 0 35 0;
#X connect 4 0 26 0;
#X connect 4 1 5 0;
#X connect 5 0 6 0;
#X connect 7 0 35 0;
#X connect 8 0 37 0;
#X connect 8 0 38 0;
#X connect 9 0 8 1;
#X connect 10 0 11 0;
#X connect 11 0 9 2;
#X connect 12 0 8 0;
#X connect 13 0 16 0;
#X connect 14 0 15 0;
#X connect 15 0 12 0;
#X connect 16 0 14 0;
#X connect 17 0 15 1;
#X connect 18 0 15 1;
#X connect 19 0 15 1;
#X connect 20 0 19 0;
#X connect 20 1 17 0;
#X connect 20 2 18 0;
#X connect 21 0 20 0;
#X connect 21 0 22 0;
#X connect 23 0 12 1;
#X connect 24 0 23 0;
#X connect 25 0 9 1;
#X connect 26 0 33 0;
#X connect 26 1 9 0;
#X connect 26 2 21 0;
#X connect 27 0 29 0;
#X connect 28 0 27 0;
#X connect 29 0 14 0;
#X connect 30 0 32 0;
#X connect 31 0 30 0;
#X connect 32 0 29 1;
#X connect 33 0 28 0;
#X connect 33 1 31 0;
#X connect 35 0 39 0;
#X connect 35 1 9 0;
#X connect 35 2 21 0;
#X connect 35 3 36 0;
#X connect 36 0 9 1;
#X connect 39 0 13 0;
#X restore 96 194 pd cymbalSynth;
#N canvas 374 229 620 665 cymbalSynth 0;
#X obj 32 16 inlet;
#X text 78 15 note velocity pairs;
#X obj 247 14 inlet;
#X text 288 14 random note bangs;
#X obj 32 41 unpack 0 0;
#X obj 64 62 / 127;
#X obj 64 85 s \$0-vel;
#X obj 402 129 bng 15 250 50 0 empty empty empty 17 7 0 10 -262144
-1 -1;
#X obj 57 399 *~;
#N canvas 227 330 516 558 env_perc_long 0;
#X obj 198 434 outlet~;
#X obj 13 16 inlet;
#X obj 196 327 / 127;
#X obj 196 366 t a a;
#X obj 157 260 * 127;
#X obj 117 259 t b a;
#X msg 116 280 60;
#X obj 349 21 inlet;
#X text 340 43 volume (0-1);
#X text 59 15 trigger - start envelope;
#X msg 118 153 1;
#X obj 118 131 t b;
#X obj 133 175 *;
#X obj 159 157 loadbang;
#X msg 159 176 1;
#X text 226 160 handle the volume scaling.;
#X text 249 287 setup a midi note (on then off);
#X text 325 355 calculate and send the env;
#X text 41 515 percussive envelope generator - cpm 2012;
#X obj 120 299 makenote 60 2000;
#X obj 435 20 inlet;
#X text 434 44 duration;
#X obj 198 411 c_adsr 1 300 2000 0 2000;
#X text 76 39 handle negative input to close env;
#X connect 1 0 11 0;
#X connect 2 0 3 0;
#X connect 3 0 22 0;
#X connect 3 1 22 1;
#X connect 4 0 19 1;
#X connect 5 0 6 0;
#X connect 5 1 4 0;
#X connect 6 0 19 0;
#X connect 7 0 12 1;
#X connect 10 0 12 0;
#X connect 11 0 10 0;
#X connect 12 0 5 0;
#X connect 13 0 14 0;
#X connect 14 0 12 1;
#X connect 19 1 2 0;
#X connect 20 0 19 2;
#X connect 20 0 22 3;
#X connect 22 0 0 0;
#X restore 147 376 pd env_perc_long;
#X obj 277 344 loadbang;
#X msg 265 368 1000;
#X obj 53 366 s_playtable;
#X obj 403 201 / 100;
#X obj 53 281 list prepend 1;
#X obj 53 302 list prepend 0-cym;
#X obj 403 225 + 0.1;
#X msg 224 269 1-cym;
#X msg 271 269 2-cym;
#X msg 183 270 0-cym;
#X obj 194 230 select 0 1;
#X obj 193 206 random 3;
#X floatatom 278 221 5 0 0 0 - - -;
#X msg 103 344 sr 44100;
#X obj 101 323 loadbang;
#X obj 163 353 r \$0-vel;
#X obj 33 108 t a b b;
#X obj 35 191 / 130.8;
#X obj 35 170 mtof;
#X obj 35 214 * 1;
#X obj 86 192 / 1000;
#X obj 85 172 random 15;
#X obj 85 212 + 0.99;
#X obj 33 140 t a b;
#X text 144 139 note;
#X obj 403 150 t b b b b;
#X msg 494 180 1;
#X obj 34 470 outlet~;
#X obj 102 470 outlet~;
#X obj 403 176 random 150;
#X connect 0 0 4 0;
#X connect 2 0 35 0;
#X connect 4 0 26 0;
#X connect 4 1 5 0;
#X connect 5 0 6 0;
#X connect 7 0 35 0;
#X connect 8 0 37 0;
#X connect 8 0 38 0;
#X connect 9 0 8 1;
#X connect 10 0 11 0;
#X connect 11 0 9 2;
#X connect 12 0 8 0;
#X connect 13 0 16 0;
#X connect 14 0 15 0;
#X connect 15 0 12 0;
#X connect 16 0 14 0;
#X connect 17 0 15 1;
#X connect 18 0 15 1;
#X connect 19 0 15 1;
#X connect 20 0 19 0;
#X connect 20 1 17 0;
#X connect 20 2 18 0;
#X connect 21 0 20 0;
#X connect 21 0 22 0;
#X connect 23 0 12 1;
#X connect 24 0 23 0;
#X connect 25 0 9 1;
#X connect 26 0 33 0;
#X connect 26 1 9 0;
#X connect 26 2 21 0;
#X connect 27 0 29 0;
#X connect 28 0 27 0;
#X connect 29 0 14 0;
#X connect 30 0 32 0;
#X connect 31 0 30 0;
#X connect 32 0 29 1;
#X connect 33 0 28 0;
#X connect 33 1 31 0;
#X connect 35 0 39 0;
#X connect 35 1 9 0;
#X connect 35 2 21 0;
#X connect 35 3 36 0;
#X connect 36 0 9 1;
#X connect 39 0 13 0;
#X restore 244 202 pd cymbalSynth;
#N canvas 374 229 620 665 cymbalSynth 0;
#X obj 32 16 inlet;
#X text 78 15 note velocity pairs;
#X obj 247 14 inlet;
#X text 288 14 random note bangs;
#X obj 32 41 unpack 0 0;
#X obj 64 62 / 127;
#X obj 64 85 s \$0-vel;
#X obj 402 129 bng 15 250 50 0 empty empty empty 17 7 0 10 -262144
-1 -1;
#X obj 57 399 *~;
#N canvas 227 330 516 558 env_perc_long 0;
#X obj 198 434 outlet~;
#X obj 13 16 inlet;
#X obj 196 327 / 127;
#X obj 196 366 t a a;
#X obj 157 260 * 127;
#X obj 117 259 t b a;
#X msg 116 280 60;
#X obj 349 21 inlet;
#X text 340 43 volume (0-1);
#X text 59 15 trigger - start envelope;
#X msg 118 153 1;
#X obj 118 131 t b;
#X obj 133 175 *;
#X obj 159 157 loadbang;
#X msg 159 176 1;
#X text 226 160 handle the volume scaling.;
#X text 249 287 setup a midi note (on then off);
#X text 325 355 calculate and send the env;
#X text 41 515 percussive envelope generator - cpm 2012;
#X obj 120 299 makenote 60 2000;
#X obj 435 20 inlet;
#X text 434 44 duration;
#X obj 198 411 c_adsr 1 300 2000 0 2000;
#X text 76 39 handle negative input to close env;
#X connect 1 0 11 0;
#X connect 2 0 3 0;
#X connect 3 0 22 0;
#X connect 3 1 22 1;
#X connect 4 0 19 1;
#X connect 5 0 6 0;
#X connect 5 1 4 0;
#X connect 6 0 19 0;
#X connect 7 0 12 1;
#X connect 10 0 12 0;
#X connect 11 0 10 0;
#X connect 12 0 5 0;
#X connect 13 0 14 0;
#X connect 14 0 12 1;
#X connect 19 1 2 0;
#X connect 20 0 19 2;
#X connect 20 0 22 3;
#X connect 22 0 0 0;
#X restore 147 376 pd env_perc_long;
#X obj 277 344 loadbang;
#X msg 265 368 1000;
#X obj 53 366 s_playtable;
#X obj 403 201 / 100;
#X obj 53 281 list prepend 1;
#X obj 53 302 list prepend 0-cym;
#X obj 403 225 + 0.1;
#X msg 224 269 1-cym;
#X msg 271 269 2-cym;
#X msg 183 270 0-cym;
#X obj 194 230 select 0 1;
#X obj 193 206 random 3;
#X floatatom 278 221 5 0 0 0 - - -;
#X msg 103 344 sr 44100;
#X obj 101 323 loadbang;
#X obj 163 353 r \$0-vel;
#X obj 33 108 t a b b;
#X obj 35 191 / 130.8;
#X obj 35 170 mtof;
#X obj 35 214 * 1;
#X obj 86 192 / 1000;
#X obj 85 172 random 15;
#X obj 85 212 + 0.99;
#X obj 33 140 t a b;
#X text 144 139 note;
#X obj 403 150 t b b b b;
#X msg 494 180 1;
#X obj 34 470 outlet~;
#X obj 102 470 outlet~;
#X obj 403 176 random 150;
#X connect 0 0 4 0;
#X connect 2 0 35 0;
#X connect 4 0 26 0;
#X connect 4 1 5 0;
#X connect 5 0 6 0;
#X connect 7 0 35 0;
#X connect 8 0 37 0;
#X connect 8 0 38 0;
#X connect 9 0 8 1;
#X connect 10 0 11 0;
#X connect 11 0 9 2;
#X connect 12 0 8 0;
#X connect 13 0 16 0;
#X connect 14 0 15 0;
#X connect 15 0 12 0;
#X connect 16 0 14 0;
#X connect 17 0 15 1;
#X connect 18 0 15 1;
#X connect 19 0 15 1;
#X connect 20 0 19 0;
#X connect 20 1 17 0;
#X connect 20 2 18 0;
#X connect 21 0 20 0;
#X connect 21 0 22 0;
#X connect 23 0 12 1;
#X connect 24 0 23 0;
#X connect 25 0 9 1;
#X connect 26 0 33 0;
#X connect 26 1 9 0;
#X connect 26 2 21 0;
#X connect 27 0 29 0;
#X connect 28 0 27 0;
#X connect 29 0 14 0;
#X connect 30 0 32 0;
#X connect 31 0 30 0;
#X connect 32 0 29 1;
#X connect 33 0 28 0;
#X connect 33 1 31 0;
#X connect 35 0 39 0;
#X connect 35 1 9 0;
#X connect 35 2 21 0;
#X connect 35 3 36 0;
#X connect 36 0 9 1;
#X connect 39 0 13 0;
#X restore 394 198 pd cymbalSynth;
#N canvas 374 229 620 665 cymbalSynth 0;
#X obj 32 16 inlet;
#X text 78 15 note velocity pairs;
#X obj 247 14 inlet;
#X text 288 14 random note bangs;
#X obj 32 41 unpack 0 0;
#X obj 64 62 / 127;
#X obj 64 85 s \$0-vel;
#X obj 402 129 bng 15 250 50 0 empty empty empty 17 7 0 10 -262144
-1 -1;
#X obj 57 399 *~;
#N canvas 227 330 516 558 env_perc_long 0;
#X obj 198 434 outlet~;
#X obj 13 16 inlet;
#X obj 196 327 / 127;
#X obj 196 366 t a a;
#X obj 157 260 * 127;
#X obj 117 259 t b a;
#X msg 116 280 60;
#X obj 349 21 inlet;
#X text 340 43 volume (0-1);
#X text 59 15 trigger - start envelope;
#X msg 118 153 1;
#X obj 118 131 t b;
#X obj 133 175 *;
#X obj 159 157 loadbang;
#X msg 159 176 1;
#X text 226 160 handle the volume scaling.;
#X text 249 287 setup a midi note (on then off);
#X text 325 355 calculate and send the env;
#X text 41 515 percussive envelope generator - cpm 2012;
#X obj 120 299 makenote 60 2000;
#X obj 435 20 inlet;
#X text 434 44 duration;
#X obj 198 411 c_adsr 1 300 2000 0 2000;
#X text 76 39 handle negative input to close env;
#X connect 1 0 11 0;
#X connect 2 0 3 0;
#X connect 3 0 22 0;
#X connect 3 1 22 1;
#X connect 4 0 19 1;
#X connect 5 0 6 0;
#X connect 5 1 4 0;
#X connect 6 0 19 0;
#X connect 7 0 12 1;
#X connect 10 0 12 0;
#X connect 11 0 10 0;
#X connect 12 0 5 0;
#X connect 13 0 14 0;
#X connect 14 0 12 1;
#X connect 19 1 2 0;
#X connect 20 0 19 2;
#X connect 20 0 22 3;
#X connect 22 0 0 0;
#X restore 147 376 pd env_perc_long;
#X obj 277 344 loadbang;
#X msg 265 368 1000;
#X obj 53 366 s_playtable;
#X obj 403 201 / 100;
#X obj 53 281 list prepend 1;
#X obj 53 302 list prepend 0-cym;
#X obj 403 225 + 0.1;
#X msg 224 269 1-cym;
#X msg 271 269 2-cym;
#X msg 183 270 0-cym;
#X obj 194 230 select 0 1;
#X obj 193 206 random 3;
#X floatatom 278 221 5 0 0 0 - - -;
#X msg 103 344 sr 44100;
#X obj 101 323 loadbang;
#X obj 163 353 r \$0-vel;
#X obj 33 108 t a b b;
#X obj 35 191 / 130.8;
#X obj 35 170 mtof;
#X obj 35 214 * 1;
#X obj 86 192 / 1000;
#X obj 85 172 random 15;
#X obj 85 212 + 0.99;
#X obj 33 140 t a b;
#X text 144 139 note;
#X obj 403 150 t b b b b;
#X msg 494 180 1;
#X obj 34 470 outlet~;
#X obj 102 470 outlet~;
#X obj 403 176 random 150;
#X connect 0 0 4 0;
#X connect 2 0 35 0;
#X connect 4 0 26 0;
#X connect 4 1 5 0;
#X connect 5 0 6 0;
#X connect 7 0 35 0;
#X connect 8 0 37 0;
#X connect 8 0 38 0;
#X connect 9 0 8 1;
#X connect 10 0 11 0;
#X connect 11 0 9 2;
#X connect 12 0 8 0;
#X connect 13 0 16 0;
#X connect 14 0 15 0;
#X connect 15 0 12 0;
#X connect 16 0 14 0;
#X connect 17 0 15 1;
#X connect 18 0 15 1;
#X connect 19 0 15 1;
#X connect 20 0 19 0;
#X connect 20 1 17 0;
#X connect 20 2 18 0;
#X connect 21 0 20 0;
#X connect 21 0 22 0;
#X connect 23 0 12 1;
#X connect 24 0 23 0;
#X connect 25 0 9 1;
#X connect 26 0 33 0;
#X connect 26 1 9 0;
#X connect 26 2 21 0;
#X connect 27 0 29 0;
#X connect 28 0 27 0;
#X connect 29 0 14 0;
#X connect 30 0 32 0;
#X connect 31 0 30 0;
#X connect 32 0 29 1;
#X connect 33 0 28 0;
#X connect 33 1 31 0;
#X connect 35 0 39 0;
#X connect 35 1 9 0;
#X connect 35 2 21 0;
#X connect 35 3 36 0;
#X connect 36 0 9 1;
#X connect 39 0 13 0;
#X restore 530 202 pd cymbalSynth;
#X obj 587 166 bng 15 250 50 0 empty empty empty 17 7 0 10 -262144
-1 -1;
#X obj 470 18 r autoField;
#X connect 0 0 6 0;
#X connect 1 0 5 0;
#X connect 4 0 21 1;
#X connect 6 0 16 0;
#X connect 10 0 12 0;
#X connect 11 0 2 0;
#X connect 11 1 3 0;
#X connect 12 0 14 0;
#X connect 13 0 15 0;
#X connect 14 0 11 2;
#X connect 15 0 14 0;
#X connect 16 0 4 0;
#X connect 16 1 17 0;
#X connect 16 2 18 0;
#X connect 16 3 25 0;
#X connect 17 0 22 1;
#X connect 18 0 23 1;
#X connect 19 0 20 0;
#X connect 19 1 20 1;
#X connect 20 0 21 0;
#X connect 20 1 22 0;
#X connect 20 2 23 0;
#X connect 20 3 24 0;
#X connect 21 0 11 0;
#X connect 21 1 11 1;
#X connect 22 0 11 0;
#X connect 22 1 11 1;
#X connect 23 0 11 0;
#X connect 23 1 11 1;
#X connect 24 0 11 0;
#X connect 24 1 11 1;
#X connect 25 0 24 1;
#X connect 26 0 20 2;
#X restore 289 246 pd cymbals;
#N canvas 727 49 477 425 clustermetro 0;
#X obj 303 241 bng 15 250 50 0 empty empty empty 17 7 0 10 -262144
-1 -1;
#X obj 247 264 + 1;
#X obj 211 109 t b b b b;
#X obj 201 15 bng 15 250 50 0 empty empty empty 17 7 0 10 -262144 -1
-1;
#X floatatom 256 287 5 0 0 0 - - -;
#X obj 247 244 random 6;
#X obj 67 123 delay 1000;
#X obj 192 324 c_multimetro 16 200;
#X obj 192 298 tgl 15 0 empty empty empty 17 7 0 10 -262144 -1 -1 1
1;
#X obj 91 319 delay 10;
#X msg 149 325 stop;
#X floatatom 89 252 5 0 0 0 - - -;
#X obj 89 276 sel 15;
#X obj 83 299 bng 15 250 50 0 empty empty empty 17 7 0 10 -262144 -1
-1;
#X obj 102 297 t b;
#X msg 192 277 1;
#X obj 223 13 loadbang;
#X obj 192 346 outlet;
#X obj 157 14 inlet;
#N canvas 1012 38 445 814 createclusterrhythm 0;
#X obj 78 50 inlet;
#X obj 52 778 outlet;
#X obj 68 140 t b b b b b b b b;
#X obj 93 478 list append;
#X obj 92 500 list append;
#X obj 95 522 list append;
#X obj 96 544 list append;
#X obj 94 567 list append;
#X obj 95 592 list append;
#X obj 167 187 + 200;
#X obj 148 231 + 200;
#X obj 143 277 + 200;
#X obj 122 316 + 200;
#X obj 113 358 + 200;
#X obj 104 402 + 200;
#X obj 94 444 + 200;
#X obj 167 167 random 4000;
#X obj 148 211 random 4000;
#X obj 143 257 random 4000;
#X obj 122 296 random 4000;
#X obj 113 338 random 4000;
#X obj 104 382 random 4000;
#X obj 94 424 random 4000;
#X connect 0 0 2 0;
#X connect 2 1 22 0;
#X connect 2 2 21 0;
#X connect 2 3 20 0;
#X connect 2 4 19 0;
#X connect 2 5 18 0;
#X connect 2 6 17 0;
#X connect 2 7 16 0;
#X connect 3 0 4 0;
#X connect 4 0 5 0;
#X connect 5 0 6 0;
#X connect 6 0 7 0;
#X connect 7 0 8 0;
#X connect 8 0 1 0;
#X connect 9 0 8 1;
#X connect 10 0 7 1;
#X connect 11 0 6 1;
#X connect 12 0 5 1;
#X connect 13 0 4 1;
#X connect 14 0 3 1;
#X connect 15 0 3 0;
#X connect 16 0 9 0;
#X connect 17 0 10 0;
#X connect 18 0 11 0;
#X connect 19 0 12 0;
#X connect 20 0 13 0;
#X connect 21 0 14 0;
#X connect 22 0 15 0;
#X restore 303 262 pd createclusterrhythm;
#X obj 348 352 print rhythm:;
#X obj 46 124 bng 15 250 50 0 empty empty empty 17 7 0 10 -262144 -1
-1;
#X obj 345 321 spigot;
#X obj 374 293 tgl 15 0 empty empty empty 17 7 0 10 -262144 -1 -1 0
1;
#X text 40 73 timer for calculating new cycle;
#X text 329 235 creates the rhythm;
#X obj 66 97 random 20000;
#X connect 0 0 19 0;
#X connect 1 0 7 1;
#X connect 1 0 4 0;
#X connect 2 0 26 0;
#X connect 2 1 15 0;
#X connect 2 2 5 0;
#X connect 2 3 0 0;
#X connect 3 0 2 0;
#X connect 5 0 1 0;
#X connect 5 0 12 1;
#X connect 6 0 2 0;
#X connect 6 0 21 0;
#X connect 7 0 11 0;
#X connect 7 0 17 0;
#X connect 8 0 7 0;
#X connect 9 0 10 0;
#X connect 9 0 6 0;
#X connect 10 0 7 0;
#X connect 11 0 12 0;
#X connect 12 0 13 0;
#X connect 12 0 14 0;
#X connect 14 0 9 0;
#X connect 15 0 8 0;
#X connect 16 0 2 0;
#X connect 18 0 2 0;
#X connect 19 0 7 2;
#X connect 19 0 22 0;
#X connect 22 0 20 0;
#X connect 23 0 22 1;
#X connect 26 0 6 1;
#X restore 306 193 pd clustermetro;
#X obj 285 195 bng 15 250 50 0 empty empty empty 17 7 0 10 -262144
-1 -1;
#N canvas 326 601 450 300 sel01 0;
#X obj 122 3 inlet;
#X obj 247 31 sel 0;
#X msg 225 58 0;
#X msg 275 57 1;
#X obj 49 133 spigot;
#X obj 240 5 inlet;
#X obj 47 203 outlet;
#X obj 165 105 tgl 15 0 empty empty empty 17 7 0 10 -262144 -1 -1 0
1;
#X connect 0 0 4 0;
#X connect 1 0 2 0;
#X connect 1 1 3 0;
#X connect 2 0 7 0;
#X connect 3 0 7 0;
#X connect 4 0 6 0;
#X connect 5 0 1 0;
#X connect 7 0 4 1;
#X coords 0 -1 1 1 85 25 1 100 100;
#X restore 304 216 pd sel01;
#X obj 158 15 declare -path percsamples;
#N canvas 693 34 495 685 loadsounds 0;
#X obj -197 58 soundfiler;
#X obj -197 5 loadbang;
#X obj -5 154 loadbang;
#X obj -8 198 soundfiler;
#X obj -178 145 table 0-cym;
#X obj -17 234 loadbang;
#X obj -20 278 soundfiler;
#X obj -24 312 loadbang;
#X obj -27 356 soundfiler;
#X obj -185 172 table 1-cym;
#X obj -183 202 table 2-cym;
#X msg -18 256 read -resize cymbal4.wav 1-cym;
#X msg -24 334 read -resize cymbal6.wav 2-cym;
#X msg -6 176 read -resize cymbal2.wav 0-cym;
#X obj -198 86 table 0-bowlF;
#X msg -197 32 read -resize bowlF.wav 0-bowlF;
#X obj 11 91 table 0-alm;
#X obj 6 63 soundfiler;
#X obj 6 10 loadbang;
#X msg 6 37 read -resize almglockenC.wav 0-alm;
#X connect 1 0 15 0;
#X connect 2 0 13 0;
#X connect 5 0 11 0;
#X connect 7 0 12 0;
#X connect 11 0 6 0;
#X connect 12 0 8 0;
#X connect 13 0 3 0;
#X connect 15 0 0 0;
#X connect 18 0 19 0;
#X connect 19 0 17 0;
#X restore 325 15 pd loadsounds;
#N canvas 719 94 915 715 clusters2 0;
#N canvas 1002 481 501 471 makebelnote 0;
#X obj 21 15 inlet;
#X obj 85 442 outlet;
#X obj 85 414 pack f f;
#X floatatom 55 229 5 0 0 0 - - -;
#X obj 54 162 bng 15 250 50 0 empty empty empty 17 7 0 10 -262144 -1
-1;
#X obj 54 184 random 7;
#X text 78 246 note;
#X obj 59 267 m_mixolydian 48;
#X obj 196 240 / 100;
#X obj 196 197 random 15;
#X obj 196 219 + 85;
#X obj 196 262 * 127;
#X obj 143 122 t b b;
#X obj 55 208 tabread \$0-cluster2;
#X connect 0 0 12 0;
#X connect 2 0 1 0;
#X connect 3 0 7 0;
#X connect 4 0 5 0;
#X connect 5 0 13 0;
#X connect 7 0 2 0;
#X connect 8 0 11 0;
#X connect 9 0 10 0;
#X connect 10 0 8 0;
#X connect 11 0 2 1;
#X connect 12 0 5 0;
#X connect 12 1 9 0;
#X connect 13 0 3 0;
#X restore 81 226 pd makebelnote;
#X obj 120 180 bng 15 250 50 0 empty empty empty 17 7 0 10 -262144
-1 -1;
#X obj 266 451 outlet~;
#X obj 318 450 outlet~;
#X obj 266 394 g_vol2;
#X obj 284 30 inlet;
#X text 262 11 note input;
#N canvas 1002 481 501 471 makebelnote 0;
#X obj 21 15 inlet;
#X obj 85 442 outlet;
#X obj 85 414 pack f f;
#X floatatom 55 229 5 0 0 0 - - -;
#X obj 54 162 bng 15 250 50 0 empty empty empty 17 7 0 10 -262144 -1
-1;
#X obj 54 184 random 7;
#X text 78 246 note;
#X obj 59 267 m_mixolydian 48;
#X obj 196 240 / 100;
#X obj 196 197 random 15;
#X obj 196 219 + 85;
#X obj 196 262 * 127;
#X obj 143 122 t b b;
#X obj 55 208 tabread \$0-cluster2;
#X connect 0 0 12 0;
#X connect 2 0 1 0;
#X connect 3 0 7 0;
#X connect 4 0 5 0;
#X connect 5 0 13 0;
#X connect 7 0 2 0;
#X connect 8 0 11 0;
#X connect 9 0 10 0;
#X connect 10 0 8 0;
#X connect 11 0 2 1;
#X connect 12 0 5 0;
#X connect 12 1 9 0;
#X connect 13 0 3 0;
#X restore 225 222 pd makebelnote;
#X obj 264 176 bng 15 250 50 0 empty empty empty 17 7 0 10 -262144
-1 -1;
#N canvas 1002 481 501 471 makebelnote 0;
#X obj 21 15 inlet;
#X obj 85 442 outlet;
#X obj 85 414 pack f f;
#X floatatom 55 229 5 0 0 0 - - -;
#X obj 54 162 bng 15 250 50 0 empty empty empty 17 7 0 10 -262144 -1
-1;
#X obj 54 184 random 7;
#X text 78 246 note;
#X obj 59 267 m_mixolydian 48;
#X obj 196 240 / 100;
#X obj 196 197 random 15;
#X obj 196 219 + 85;
#X obj 196 262 * 127;
#X obj 143 122 t b b;
#X obj 55 208 tabread \$0-cluster2;
#X connect 0 0 12 0;
#X connect 2 0 1 0;
#X connect 3 0 7 0;
#X connect 4 0 5 0;
#X connect 5 0 13 0;
#X connect 7 0 2 0;
#X connect 8 0 11 0;
#X connect 9 0 10 0;
#X connect 10 0 8 0;
#X connect 11 0 2 1;
#X connect 12 0 5 0;
#X connect 12 1 9 0;
#X connect 13 0 3 0;
#X restore 341 230 pd makebelnote;
#X obj 380 184 bng 15 250 50 0 empty empty empty 17 7 0 10 -262144
-1 -1;
#N canvas 1002 481 501 471 makebelnote 0;
#X obj 21 15 inlet;
#X obj 85 442 outlet;
#X obj 85 414 pack f f;
#X floatatom 55 229 5 0 0 0 - - -;
#X obj 54 162 bng 15 250 50 0 empty empty empty 17 7 0 10 -262144 -1
-1;
#X obj 54 184 random 7;
#X text 78 246 note;
#X obj 59 267 m_mixolydian 48;
#X obj 196 240 / 100;
#X obj 196 197 random 15;
#X obj 196 219 + 85;
#X obj 196 262 * 127;
#X obj 143 122 t b b;
#X obj 55 208 tabread \$0-cluster2;
#X connect 0 0 12 0;
#X connect 2 0 1 0;
#X connect 3 0 7 0;
#X connect 4 0 5 0;
#X connect 5 0 13 0;
#X connect 7 0 2 0;
#X connect 8 0 11 0;
#X connect 9 0 10 0;
#X connect 10 0 8 0;
#X connect 11 0 2 1;
#X connect 12 0 5 0;
#X connect 12 1 9 0;
#X connect 13 0 3 0;
#X restore 438 232 pd makebelnote;
#X obj 477 186 bng 15 250 50 0 empty empty empty 17 7 0 10 -262144
-1 -1;
#X obj 601 3 loadbang;
#X msg 640 150 0 -7 -6 -2 -1 3 -9;
#X obj 608 74 table \$0-cluster2 7;
#X obj 605 53 s \$0-cluster2;
#N canvas 852 386 450 300 counter 0;
#X obj 28 19 inlet;
#X obj 98 73 + 1;
#X floatatom 45 97 5 0 0 0 - - -;
#X msg 95 119 set \$1;
#X obj 95 96 % 4;
#X obj 33 168 sel 0 1 2 3;
#X obj 22 245 outlet;
#X obj 58 242 outlet;
#X obj 102 239 outlet;
#X obj 147 238 outlet;
#X connect 0 0 2 0;
#X connect 1 0 4 0;
#X connect 2 0 1 0;
#X connect 2 0 5 0;
#X connect 3 0 2 0;
#X connect 4 0 3 0;
#X connect 5 0 6 0;
#X connect 5 1 7 0;
#X connect 5 2 8 0;
#X connect 5 3 9 0;
#X restore 282 55 pd counter;
#X obj 388 386 loadbang;
#X obj 458 383 inlet;
#X msg 388 408 95;
#N canvas 859 247 478 572 choosenotes 0;
#X obj 54 22 inlet;
#X obj 70 535 outlet;
#X obj 58 81 random 19;
#X obj 58 103 - 9;
#X obj 58 130 list append;
#X obj 58 163 list append;
#X obj 68 173 list append;
#X obj 78 183 list append;
#X obj 88 193 list append;
#X obj 98 203 list append;
#X obj 63 52 t b b b b b b b;
#X obj 121 81 random 19;
#X obj 121 103 - 9;
#X obj 185 80 random 19;
#X obj 185 102 - 9;
#X obj 185 131 random 19;
#X obj 185 153 - 9;
#X obj 251 131 random 19;
#X obj 251 153 - 9;
#X obj 317 131 random 19;
#X obj 317 153 - 9;
#X obj 382 130 random 19;
#X obj 382 152 - 9;
#X connect 0 0 10 0;
#X connect 2 0 3 0;
#X connect 3 0 4 0;
#X connect 4 0 5 0;
#X connect 5 0 6 0;
#X connect 6 0 7 0;
#X connect 7 0 8 0;
#X connect 8 0 9 0;
#X connect 9 0 1 0;
#X connect 10 0 2 0;
#X connect 10 1 11 0;
#X connect 10 2 13 0;
#X connect 10 3 15 0;
#X connect 10 4 17 0;
#X connect 10 5 19 0;
#X connect 10 6 21 0;
#X connect 11 0 12 0;
#X connect 12 0 4 1;
#X connect 13 0 14 0;
#X connect 14 0 5 1;
#X connect 15 0 16 0;
#X connect 16 0 6 1;
#X connect 17 0 18 0;
#X connect 18 0 7 1;
#X connect 19 0 20 0;
#X connect 20 0 8 1;
#X connect 21 0 22 0;
#X connect 22 0 9 1;
#X restore 603 30 pd choosenotes;
#X obj 708 194 notein;
#N canvas 1121 64 488 330 note_distribute 0;
#X obj 89 26 inlet;
#X obj 153 27 inlet;
#X obj 45 258 outlet;
#X obj 103 50 pack f f;
#X obj 103 85 stripnote;
#X obj 127 257 outlet;
#X obj 244 260 outlet;
#X obj 313 257 outlet;
#X obj 248 106 + 1;
#X floatatom 195 130 5 0 0 0 - - -;
#X msg 245 152 set \$1;
#X obj 245 129 % 4;
#X obj 195 102 t b;
#X obj 84 210 route 0 1 2 3;
#X obj 98 145 pack f f;
#X obj 123 180 list prepend;
#N canvas 326 601 450 300 sel01 0;
#X obj 122 3 inlet;
#X obj 247 31 sel 0;
#X msg 225 58 0;
#X msg 275 57 1;
#X obj 49 133 spigot;
#X obj 240 5 inlet;
#X obj 47 203 outlet;
#X obj 165 105 tgl 15 0 empty empty empty 17 7 0 10 -262144 -1 -1 1
1;
#X connect 0 0 4 0;
#X connect 1 0 2 0;
#X connect 1 1 3 0;
#X connect 2 0 7 0;
#X connect 3 0 7 0;
#X connect 4 0 6 0;
#X connect 5 0 1 0;
#X connect 7 0 4 1;
#X coords 0 -1 1 1 85 25 1 100 100;
#X restore 231 48 pd sel01;
#X obj 331 23 inlet;
#X obj 340 91 loadbang;
#X msg 335 121 1;
#X connect 0 0 3 0;
#X connect 1 0 3 1;
#X connect 3 0 16 0;
#X connect 4 0 14 0;
#X connect 4 1 12 0;
#X connect 4 1 14 1;
#X connect 8 0 11 0;
#X connect 9 0 8 0;
#X connect 9 0 15 1;
#X connect 10 0 9 0;
#X connect 11 0 10 0;
#X connect 12 0 9 0;
#X connect 13 0 2 0;
#X connect 13 1 5 0;
#X connect 13 2 6 0;
#X connect 13 3 7 0;
#X connect 14 0 15 0;
#X connect 15 0 13 0;
#X connect 16 0 4 0;
#X connect 17 0 16 1;
#X connect 18 0 19 0;
#X connect 19 0 16 1;
#X restore 673 275 pd note_distribute;
#X obj 779 162 r clusterSwitch;
#X obj 779 188 * -1;
#X obj 780 213 + 1;
#X obj 780 244 abs;
#X obj 482 28 r clusterSwitch;
#X obj 482 49 t b;
#X floatatom 800 298 5 0 0 0 - - -;
#X obj 84 263 bowlsynth;
#X obj 228 259 bowlsynth;
#X obj 344 267 bowlsynth;
#X obj 441 269 bowlsynth;
#X obj 513 96 r randomiseSounds;
#X msg 150 494 0-alm 130.8;
#X msg 51 496 0-bowlF 174.61;
#X obj 101 566 r randomiseSounds;
#X obj 97 593 random 2;
#X obj 96 624 select 0 1;
#X obj 105 525 s chooseClusterSound;
#X obj 81 310 r chooseClusterSound;
#X obj 226 294 r chooseClusterSound;
#X obj 358 290 r chooseClusterSound;
#X obj 445 320 r chooseClusterSound;
#X connect 0 0 31 0;
#X connect 1 0 0 0;
#X connect 4 0 2 0;
#X connect 4 1 3 0;
#X connect 5 0 17 0;
#X connect 7 0 32 0;
#X connect 8 0 7 0;
#X connect 9 0 33 0;
#X connect 10 0 9 0;
#X connect 11 0 34 0;
#X connect 12 0 11 0;
#X connect 13 0 21 0;
#X connect 17 0 1 0;
#X connect 17 1 8 0;
#X connect 17 2 10 0;
#X connect 17 3 12 0;
#X connect 18 0 20 0;
#X connect 19 0 4 2;
#X connect 20 0 4 2;
#X connect 21 0 16 0;
#X connect 22 0 23 0;
#X connect 22 1 23 1;
#X connect 23 0 31 0;
#X connect 23 1 32 0;
#X connect 23 2 33 0;
#X connect 23 3 34 0;
#X connect 24 0 25 0;
#X connect 25 0 26 0;
#X connect 26 0 27 0;
#X connect 27 0 23 2;
#X connect 27 0 30 0;
#X connect 28 0 29 0;
#X connect 29 0 21 0;
#X connect 31 0 4 0;
#X connect 31 1 4 1;
#X connect 32 0 4 0;
#X connect 32 1 4 1;
#X connect 33 0 4 0;
#X connect 33 1 4 1;
#X connect 34 0 4 0;
#X connect 34 1 4 1;
#X connect 35 0 21 0;
#X connect 36 0 41 0;
#X connect 37 0 41 0;
#X connect 38 0 39 0;
#X connect 39 0 40 0;
#X connect 40 0 37 0;
#X connect 40 1 36 0;
#X connect 42 0 31 1;
#X connect 43 0 32 1;
#X connect 44 0 33 1;
#X connect 45 0 34 1;
#X restore 149 246 pd clusters2;
#N canvas 93 395 450 300 reverb 0;
#X obj 48 24 inlet~;
#X obj 47 206 outlet~;
#X obj 132 33 loadbang;
#X obj 46 117 e_reverb \$0-reverbBus;
#X obj 106 207 outlet~;
#X msg 132 54 amp 80 \, hall 85 \, freq 6000 \, damp 60 \, dry 0;
#X connect 0 0 3 0;
#X connect 2 0 5 0;
#X connect 3 0 1 0;
#X connect 3 1 4 0;
#X connect 5 0 3 1;
#X restore 99 325 pd reverb;
#N canvas 72 22 763 884 snowslide 0;
#X obj 107 34 inlet;
#X obj 129 813 outlet~;
#X obj 179 812 outlet~;
#X obj 116 203 bng 15 250 50 0 empty empty empty 17 7 0 10 -262144
-1 -1;
#X obj 116 268 list prepend playdiv;
#X obj 107 54 t b;
#X text 107 13 note;
#X text 290 717 volume;
#X obj 293 734 inlet;
#X obj 145 756 g_vol2;
#X obj 294 763 / 100;
#X obj 123 628 *~;
#N canvas 227 330 516 558 env_perc_long 0;
#X obj 198 434 outlet~;
#X obj 13 16 inlet;
#X obj 196 327 / 127;
#X obj 196 366 t a a;
#X obj 157 260 * 127;
#X obj 117 259 t b a;
#X msg 116 280 60;
#X obj 349 21 inlet;
#X text 340 43 volume (0-1);
#X text 59 15 trigger - start envelope;
#X msg 118 153 1;
#X obj 118 131 t b;
#X obj 133 175 *;
#X obj 159 157 loadbang;
#X msg 159 176 1;
#X text 226 160 handle the volume scaling.;
#X text 249 287 setup a midi note (on then off);
#X text 325 355 calculate and send the env;
#X text 41 515 percussive envelope generator - cpm 2012;
#X obj 120 299 makenote 60 2000;
#X obj 435 20 inlet;
#X text 434 44 duration;
#X obj 198 411 c_adsr 1 300 2000 0 2000;
#X text 76 39 handle negative input to close env;
#X connect 1 0 11 0;
#X connect 2 0 3 0;
#X connect 3 0 22 0;
#X connect 3 1 22 1;
#X connect 4 0 19 1;
#X connect 5 0 6 0;
#X connect 5 1 4 0;
#X connect 6 0 19 0;
#X connect 7 0 12 1;
#X connect 10 0 12 0;
#X connect 11 0 10 0;
#X connect 12 0 5 0;
#X connect 13 0 14 0;
#X connect 14 0 12 1;
#X connect 19 1 2 0;
#X connect 20 0 19 2;
#X connect 20 0 22 3;
#X connect 22 0 0 0;
#X restore 254 404 pd env_perc_long;
#X obj 305 174 unpack s f;
#X floatatom 342 205 10 0 0 0 - - -;
#X msg 257 291 info;
#X floatatom 394 261 5 0 0 0 - - -;
#X msg 252 207 fade 10;
#X obj 407 322 loadbang;
#X obj 233 720 loadbang;
#X obj 116 289 list append 1;
#X floatatom 404 344 5 0 0 0 - - -;
#X obj 116 222 random 15;
#X obj 116 247 list prepend 15;
#X obj 392 235 / 15;
#X obj 392 294 - 300;
#X obj 256 270 loadbang;
#X obj 239 813 * 1;
#X obj 254 167 loadbang;
#X msg 299 299 sr 44100;
#X msg 445 345 1700;
#X obj 184 629 *~;
#X msg 233 742 82;
#X obj 116 360 s_looper \$0-snow2 20111206-PiteaFirstSnowWalkAmbience.wav
;
#X connect 0 0 5 0;
#X connect 3 0 22 0;
#X connect 4 0 20 0;
#X connect 5 0 3 0;
#X connect 8 0 10 0;
#X connect 9 0 1 0;
#X connect 9 1 2 0;
#X connect 10 0 27 0;
#X connect 11 0 9 0;
#X connect 12 0 11 1;
#X connect 12 0 31 1;
#X connect 13 1 14 0;
#X connect 13 1 24 0;
#X connect 15 0 33 0;
#X connect 16 0 25 0;
#X connect 17 0 33 0;
#X connect 18 0 30 0;
#X connect 19 0 32 0;
#X connect 20 0 33 0;
#X connect 22 0 23 0;
#X connect 23 0 4 0;
#X connect 24 0 16 0;
#X connect 25 0 12 2;
#X connect 25 0 21 0;
#X connect 26 0 15 0;
#X connect 26 0 29 0;
#X connect 27 0 9 2;
#X connect 28 0 17 0;
#X connect 29 0 33 0;
#X connect 30 0 12 2;
#X connect 31 0 9 1;
#X connect 32 0 27 0;
#X connect 33 0 11 0;
#X connect 33 1 31 0;
#X connect 33 2 12 0;
#X connect 33 3 13 0;
#X restore 448 245 pd snowslide;
#N canvas 727 49 477 425 clustermetro 0;
#X obj 303 241 bng 15 250 50 0 empty empty empty 17 7 0 10 -262144
-1 -1;
#X obj 247 264 + 1;
#X obj 211 109 t b b b b;
#X obj 201 15 bng 15 250 50 0 empty empty empty 17 7 0 10 -262144 -1
-1;
#X floatatom 256 287 5 0 0 0 - - -;
#X obj 247 244 random 6;
#X obj 67 123 delay 1000;
#X obj 192 324 c_multimetro 16 200;
#X obj 192 298 tgl 15 0 empty empty empty 17 7 0 10 -262144 -1 -1 1
1;
#X obj 91 319 delay 10;
#X msg 149 325 stop;
#X floatatom 89 252 5 0 0 0 - - -;
#X obj 89 276 sel 15;
#X obj 83 299 bng 15 250 50 0 empty empty empty 17 7 0 10 -262144 -1
-1;
#X obj 102 297 t b;
#X msg 192 277 1;
#X obj 223 13 loadbang;
#X obj 192 346 outlet;
#X obj 157 14 inlet;
#N canvas 1012 38 445 814 createclusterrhythm 0;
#X obj 78 50 inlet;
#X obj 52 778 outlet;
#X obj 68 140 t b b b b b b b b;
#X obj 93 478 list append;
#X obj 92 500 list append;
#X obj 95 522 list append;
#X obj 96 544 list append;
#X obj 94 567 list append;
#X obj 95 592 list append;
#X obj 167 187 + 200;
#X obj 148 231 + 200;
#X obj 143 277 + 200;
#X obj 122 316 + 200;
#X obj 113 358 + 200;
#X obj 104 402 + 200;
#X obj 94 444 + 200;
#X obj 167 167 random 4000;
#X obj 148 211 random 4000;
#X obj 143 257 random 4000;
#X obj 122 296 random 4000;
#X obj 113 338 random 4000;
#X obj 104 382 random 4000;
#X obj 94 424 random 4000;
#X connect 0 0 2 0;
#X connect 2 1 22 0;
#X connect 2 2 21 0;
#X connect 2 3 20 0;
#X connect 2 4 19 0;
#X connect 2 5 18 0;
#X connect 2 6 17 0;
#X connect 2 7 16 0;
#X connect 3 0 4 0;
#X connect 4 0 5 0;
#X connect 5 0 6 0;
#X connect 6 0 7 0;
#X connect 7 0 8 0;
#X connect 8 0 1 0;
#X connect 9 0 8 1;
#X connect 10 0 7 1;
#X connect 11 0 6 1;
#X connect 12 0 5 1;
#X connect 13 0 4 1;
#X connect 14 0 3 1;
#X connect 15 0 3 0;
#X connect 16 0 9 0;
#X connect 17 0 10 0;
#X connect 18 0 11 0;
#X connect 19 0 12 0;
#X connect 20 0 13 0;
#X connect 21 0 14 0;
#X connect 22 0 15 0;
#X restore 303 262 pd createclusterrhythm;
#X obj 348 352 print rhythm:;
#X obj 46 124 bng 15 250 50 0 empty empty empty 17 7 0 10 -262144 -1
-1;
#X obj 345 321 spigot;
#X obj 374 293 tgl 15 0 empty empty empty 17 7 0 10 -262144 -1 -1 0
1;
#X text 40 73 timer for calculating new cycle;
#X text 329 235 creates the rhythm;
#X obj 66 97 random 20000;
#X connect 0 0 19 0;
#X connect 1 0 7 1;
#X connect 1 0 4 0;
#X connect 2 0 26 0;
#X connect 2 1 15 0;
#X connect 2 2 5 0;
#X connect 2 3 0 0;
#X connect 3 0 2 0;
#X connect 5 0 1 0;
#X connect 5 0 12 1;
#X connect 6 0 2 0;
#X connect 6 0 21 0;
#X connect 7 0 11 0;
#X connect 7 0 17 0;
#X connect 8 0 7 0;
#X connect 9 0 10 0;
#X connect 9 0 6 0;
#X connect 10 0 7 0;
#X connect 11 0 12 0;
#X connect 12 0 13 0;
#X connect 12 0 14 0;
#X connect 14 0 9 0;
#X connect 15 0 8 0;
#X connect 16 0 2 0;
#X connect 18 0 2 0;
#X connect 19 0 7 2;
#X connect 19 0 22 0;
#X connect 22 0 20 0;
#X connect 23 0 22 1;
#X connect 26 0 6 1;
#X restore 451 192 pd clustermetro;
#X obj 430 194 bng 15 250 50 0 empty empty empty 17 7 0 10 -262144
-1 -1;
#N canvas 326 601 450 300 sel01 0;
#X obj 122 3 inlet;
#X obj 247 31 sel 0;
#X msg 225 58 0;
#X msg 275 57 1;
#X obj 49 133 spigot;
#X obj 240 5 inlet;
#X obj 47 203 outlet;
#X obj 165 105 tgl 15 0 empty empty empty 17 7 0 10 -262144 -1 -1 0
1;
#X connect 0 0 4 0;
#X connect 1 0 2 0;
#X connect 1 1 3 0;
#X connect 2 0 7 0;
#X connect 3 0 7 0;
#X connect 4 0 6 0;
#X connect 5 0 1 0;
#X connect 7 0 4 1;
#X coords 0 -1 1 1 85 25 1 100 100;
#X restore 449 215 pd sel01;
#N canvas 27 222 450 300 output 0;
#X obj 60 16 inlet~;
#X obj 60 52 hip~ 1;
#X obj 60 78 clip~ -1 1;
#X obj 131 16 inlet~;
#X obj 131 52 hip~ 1;
#X obj 131 78 clip~ -1 1;
#X obj 100 111 dac~;
#X connect 0 0 1 0;
#X connect 1 0 2 0;
#X connect 2 0 6 0;
#X connect 3 0 4 0;
#X connect 4 0 5 0;
#X connect 5 0 6 1;
#X restore 446 460 pd output;
#X obj 157 79 declare -path cpmlibs;
#X obj 155 46 declare -path fieldrecordings;
#X obj 703 235 * 0.8;
#X obj 703 255 + 0.2;
#X obj 563 23 tgl 15 0 empty empty empty 17 7 0 10 -262144 -1 -1 0
1;
#N canvas 415 98 865 753 field_responder 0;
#X obj 62 60 inlet;
#X obj 359 50 inlet;
#X obj 569 52 inlet;
#X text 358 32 touchMoved;
#X text 568 35 touchEnded;
#X text 59 41 touchBegan;
#X obj 321 502 outlet~;
#X obj 397 502 outlet~;
#N canvas 0 22 450 300 vol_scaler 0;
#X obj 40 20 inlet~;
#X obj 167 25 inlet~;
#X obj 34 255 outlet~;
#X obj 177 252 outlet~;
#X obj 45 118 *~;
#X obj 168 116 *~;
#X obj 255 27 inlet;
#X obj 266 244 outlet;
#X obj 283 79 loadbang;
#X msg 282 122 1;
#X connect 0 0 4 0;
#X connect 1 0 5 0;
#X connect 4 0 2 0;
#X connect 5 0 3 0;
#X connect 6 0 5 1;
#X connect 6 0 4 1;
#X connect 6 0 7 0;
#X connect 8 0 9 0;
#X connect 9 0 5 1;
#X connect 9 0 4 1;
#X restore 412 432 pd vol_scaler;
#X msg 486 407 0;
#X obj 576 76 bng 15 250 50 0 empty empty empty 17 7 0 10 -262144 -1
-1;
#X obj 365 142 line;
#X obj 365 122 list append 100;
#X msg 383 204 loop 1;
#X msg 569 98 stop;
#X msg 475 64 100;
#X msg 382 246 loop 1;
#N canvas 1333 300 450 300 chooseOutAtLoad 0;
#X obj 28 19 inlet;
#X floatatom 45 97 5 0 0 0 - - -;
#X msg 95 119 set \$1;
#X obj 22 245 outlet;
#X obj 58 242 outlet;
#X obj 115 38 loadbang;
#X obj 185 52 bng 15 250 50 0 empty empty empty 17 7 0 10 -262144 -1
-1;
#X obj 118 73 random 3;
#X obj 33 168 sel 0 1 2;
#X obj 102 245 outlet;
#X obj 183 32 r randomiseSounds;
#X connect 0 0 1 0;
#X connect 1 0 8 0;
#X connect 2 0 1 0;
#X connect 5 0 7 0;
#X connect 6 0 7 0;
#X connect 7 0 2 0;
#X connect 8 0 3 0;
#X connect 8 1 4 0;
#X connect 8 2 9 0;
#X connect 10 0 7 0;
#X restore 230 79 pd chooseOutAtLoad;
#X msg 377 290 loop 1;
#X obj 437 203 s_looper \$0-temple 2010Japan-TempleBellClaps.wav;
#X msg 665 132 sr 44100;
#X obj 665 111 loadbang;
#X obj 599 448 unpack s f;
#X obj 517 448 random 30000;
#X msg 730 367 info;
#X obj 730 346 loadbang;
#X obj 229 33 inlet;
#X obj 230 56 t b a;
#N canvas 1026 543 488 330 tap_distribute 0;
#X obj 89 26 inlet;
#X obj 45 258 outlet;
#X obj 127 257 outlet;
#X obj 244 260 outlet;
#X obj 313 257 outlet;
#X obj 248 106 + 1;
#X floatatom 195 130 5 0 0 0 - - -;
#X msg 245 152 set \$1;
#X obj 245 129 % 4;
#X obj 195 102 t b;
#X obj 84 210 route 0 1 2 3;
#X obj 123 180 list prepend;
#X connect 0 0 9 0;
#X connect 0 0 11 0;
#X connect 5 0 8 0;
#X connect 6 0 5 0;
#X connect 6 0 11 1;
#X connect 7 0 6 0;
#X connect 8 0 7 0;
#X connect 9 0 6 0;
#X connect 10 0 1 0;
#X connect 10 1 2 0;
#X connect 10 2 3 0;
#X connect 10 3 4 0;
#X connect 11 0 10 0;
#X restore 76 168 pd tap_distribute;
#N canvas 642 116 491 523 tapfieldplayer 0;
#X obj 28 19 inlet;
#X obj 23 477 outlet~;
#X obj 131 478 outlet~;
#X obj 62 290 list prepend playdiv;
#X obj 200 112 bng 15 250 50 0 empty empty empty 17 7 0 10 -262144
-1 -1;
#N canvas 1144 170 516 558 env_perc 0;
#X obj 198 412 outlet~;
#X obj 13 16 inlet;
#X obj 196 327 / 127;
#X obj 196 366 t a a;
#X obj 157 260 * 127;
#X msg 116 280 60;
#X obj 116 301 makenote 60 200;
#X obj 349 21 inlet;
#X text 340 43 volume (0-1);
#X text 59 15 trigger - start envelope;
#X msg 16 102 1;
#X obj 31 124 *;
#X obj 57 106 loadbang;
#X msg 57 125 1;
#X text 6 53 handle the volume scaling.;
#X text 249 287 setup a midi note (on then off);
#X text 325 355 calculate and send the env;
#X text 41 515 percussive envelope generator - cpm 2012;
#X obj 448 23 inlet;
#X text 214 222 calculate a changing length;
#X obj 16 80 t b b;
#X obj 117 209 t b a b;
#X obj 198 272 + 50;
#X floatatom 305 265 5 0 0 0 - - -;
#X obj 199 248 random 250;
#X obj 198 389 c_adsr 1 20 200 100 450;
#X connect 1 0 20 0;
#X connect 2 0 3 0;
#X connect 3 0 25 0;
#X connect 3 1 25 1;
#X connect 4 0 6 1;
#X connect 5 0 6 0;
#X connect 6 1 2 0;
#X connect 7 0 11 1;
#X connect 10 0 11 0;
#X connect 11 0 21 0;
#X connect 12 0 13 0;
#X connect 13 0 11 1;
#X connect 18 0 22 1;
#X connect 20 0 10 0;
#X connect 21 0 5 0;
#X connect 21 1 4 0;
#X connect 21 2 24 0;
#X connect 22 0 6 2;
#X connect 22 0 23 0;
#X connect 24 0 22 0;
#X connect 25 0 0 0;
#X restore 293 410 pd env_perc;
#N canvas 0 22 450 300 vol_scaler_ar 0;
#X obj 40 20 inlet~;
#X obj 167 25 inlet~;
#X obj 34 255 outlet~;
#X obj 177 252 outlet~;
#X obj 45 118 *~;
#X obj 168 116 *~;
#X obj 283 79 loadbang;
#X msg 282 122 1;
#X obj 255 27 inlet~;
#X obj 266 244 outlet~;
#X connect 0 0 4 0;
#X connect 1 0 5 0;
#X connect 4 0 2 0;
#X connect 5 0 3 0;
#X connect 6 0 7 0;
#X connect 7 0 5 1;
#X connect 7 0 4 1;
#X connect 8 0 5 1;
#X connect 8 0 4 1;
#X connect 8 0 9 0;
#X restore 147 369 pd vol_scaler_ar;
#X obj 245 77 t b a;
#X msg 49 170 sr 44100;
#X obj 49 147 loadbang;
#X obj 62 268 list prepend 150;
#X obj 109 201 random 5;
#X obj 62 247 list prepend;
#X obj 183 212 random 150;
#X obj 92 227 + 1;
#X obj 381 22 inlet;
#X obj 360 247 list prepend open;
#X obj 360 278 list trim;
#X obj 71 335 s_looper_open \$0-snowStep 20110406-PiteaDrainpipes.wav
;
#X connect 0 0 7 0;
#X connect 3 0 18 0;
#X connect 4 0 11 0;
#X connect 4 0 13 0;
#X connect 5 0 6 2;
#X connect 6 0 1 0;
#X connect 6 1 2 0;
#X connect 7 0 4 0;
#X connect 7 1 5 1;
#X connect 8 0 18 0;
#X connect 9 0 8 0;
#X connect 10 0 3 0;
#X connect 11 0 14 0;
#X connect 12 0 10 0;
#X connect 13 0 12 1;
#X connect 14 0 12 0;
#X connect 15 0 16 0;
#X connect 16 0 17 0;
#X connect 17 0 18 0;
#X connect 18 0 6 0;
#X connect 18 0 6 1;
#X connect 18 2 5 0;
#X restore 99 280 pd tapfieldplayer;
#X msg 174 601 2010Japan-TempleBellClaps.wav;
#N canvas 642 116 491 523 tapfieldplayer 0;
#X obj 28 19 inlet;
#X obj 23 477 outlet~;
#X obj 131 478 outlet~;
#X obj 62 290 list prepend playdiv;
#X obj 200 112 bng 15 250 50 0 empty empty empty 17 7 0 10 -262144
-1 -1;
#N canvas 1144 170 516 558 env_perc 0;
#X obj 198 412 outlet~;
#X obj 13 16 inlet;
#X obj 196 327 / 127;
#X obj 196 366 t a a;
#X obj 157 260 * 127;
#X msg 116 280 60;
#X obj 116 301 makenote 60 200;
#X obj 349 21 inlet;
#X text 340 43 volume (0-1);
#X text 59 15 trigger - start envelope;
#X msg 16 102 1;
#X obj 31 124 *;
#X obj 57 106 loadbang;
#X msg 57 125 1;
#X text 6 53 handle the volume scaling.;
#X text 249 287 setup a midi note (on then off);
#X text 325 355 calculate and send the env;
#X text 41 515 percussive envelope generator - cpm 2012;
#X obj 448 23 inlet;
#X text 214 222 calculate a changing length;
#X obj 16 80 t b b;
#X obj 117 209 t b a b;
#X obj 198 272 + 50;
#X floatatom 305 265 5 0 0 0 - - -;
#X obj 199 248 random 250;
#X obj 198 389 c_adsr 1 20 200 100 450;
#X connect 1 0 20 0;
#X connect 2 0 3 0;
#X connect 3 0 25 0;
#X connect 3 1 25 1;
#X connect 4 0 6 1;
#X connect 5 0 6 0;
#X connect 6 1 2 0;
#X connect 7 0 11 1;
#X connect 10 0 11 0;
#X connect 11 0 21 0;
#X connect 12 0 13 0;
#X connect 13 0 11 1;
#X connect 18 0 22 1;
#X connect 20 0 10 0;
#X connect 21 0 5 0;
#X connect 21 1 4 0;
#X connect 21 2 24 0;
#X connect 22 0 6 2;
#X connect 22 0 23 0;
#X connect 24 0 22 0;
#X connect 25 0 0 0;
#X restore 293 410 pd env_perc;
#N canvas 0 22 450 300 vol_scaler_ar 0;
#X obj 40 20 inlet~;
#X obj 167 25 inlet~;
#X obj 34 255 outlet~;
#X obj 177 252 outlet~;
#X obj 45 118 *~;
#X obj 168 116 *~;
#X obj 283 79 loadbang;
#X msg 282 122 1;
#X obj 255 27 inlet~;
#X obj 266 244 outlet~;
#X connect 0 0 4 0;
#X connect 1 0 5 0;
#X connect 4 0 2 0;
#X connect 5 0 3 0;
#X connect 6 0 7 0;
#X connect 7 0 5 1;
#X connect 7 0 4 1;
#X connect 8 0 5 1;
#X connect 8 0 4 1;
#X connect 8 0 9 0;
#X restore 147 369 pd vol_scaler_ar;
#X obj 245 77 t b a;
#X msg 49 170 sr 44100;
#X obj 49 147 loadbang;
#X obj 62 268 list prepend 150;
#X obj 109 201 random 5;
#X obj 62 247 list prepend;
#X obj 183 212 random 150;
#X obj 92 227 + 1;
#X obj 381 22 inlet;
#X obj 351 80 list prepend open;
#X obj 334 110 list trim;
#X obj 71 335 s_looper_open \$0-snowStep 20110406-PiteaDrainpipes.wav
;
#X connect 0 0 7 0;
#X connect 3 0 18 0;
#X connect 4 0 11 0;
#X connect 4 0 13 0;
#X connect 5 0 6 2;
#X connect 6 0 1 0;
#X connect 6 1 2 0;
#X connect 7 0 4 0;
#X connect 7 1 5 1;
#X connect 8 0 18 0;
#X connect 9 0 8 0;
#X connect 10 0 3 0;
#X connect 11 0 14 0;
#X connect 12 0 10 0;
#X connect 13 0 12 1;
#X connect 14 0 12 0;
#X connect 15 0 16 0;
#X connect 16 0 17 0;
#X connect 17 0 18 0;
#X connect 18 0 6 0;
#X connect 18 0 6 1;
#X connect 18 2 5 0;
#X restore 126 306 pd tapfieldplayer;
#N canvas 642 116 491 523 tapfieldplayer 0;
#X obj 28 19 inlet;
#X obj 23 477 outlet~;
#X obj 131 478 outlet~;
#X obj 62 290 list prepend playdiv;
#X obj 200 112 bng 15 250 50 0 empty empty empty 17 7 0 10 -262144
-1 -1;
#N canvas 1144 170 516 558 env_perc 0;
#X obj 198 412 outlet~;
#X obj 13 16 inlet;
#X obj 196 327 / 127;
#X obj 196 366 t a a;
#X obj 157 260 * 127;
#X msg 116 280 60;
#X obj 116 301 makenote 60 200;
#X obj 349 21 inlet;
#X text 340 43 volume (0-1);
#X text 59 15 trigger - start envelope;
#X msg 16 102 1;
#X obj 31 124 *;
#X obj 57 106 loadbang;
#X msg 57 125 1;
#X text 6 53 handle the volume scaling.;
#X text 249 287 setup a midi note (on then off);
#X text 325 355 calculate and send the env;
#X text 41 515 percussive envelope generator - cpm 2012;
#X obj 448 23 inlet;
#X text 214 222 calculate a changing length;
#X obj 16 80 t b b;
#X obj 117 209 t b a b;
#X obj 198 272 + 50;
#X floatatom 305 265 5 0 0 0 - - -;
#X obj 199 248 random 250;
#X obj 198 389 c_adsr 1 20 200 100 450;
#X connect 1 0 20 0;
#X connect 2 0 3 0;
#X connect 3 0 25 0;
#X connect 3 1 25 1;
#X connect 4 0 6 1;
#X connect 5 0 6 0;
#X connect 6 1 2 0;
#X connect 7 0 11 1;
#X connect 10 0 11 0;
#X connect 11 0 21 0;
#X connect 12 0 13 0;
#X connect 13 0 11 1;
#X connect 18 0 22 1;
#X connect 20 0 10 0;
#X connect 21 0 5 0;
#X connect 21 1 4 0;
#X connect 21 2 24 0;
#X connect 22 0 6 2;
#X connect 22 0 23 0;
#X connect 24 0 22 0;
#X connect 25 0 0 0;
#X restore 293 410 pd env_perc;
#N canvas 0 22 450 300 vol_scaler_ar 0;
#X obj 40 20 inlet~;
#X obj 167 25 inlet~;
#X obj 34 255 outlet~;
#X obj 177 252 outlet~;
#X obj 45 118 *~;
#X obj 168 116 *~;
#X obj 283 79 loadbang;
#X msg 282 122 1;
#X obj 255 27 inlet~;
#X obj 266 244 outlet~;
#X connect 0 0 4 0;
#X connect 1 0 5 0;
#X connect 4 0 2 0;
#X connect 5 0 3 0;
#X connect 6 0 7 0;
#X connect 7 0 5 1;
#X connect 7 0 4 1;
#X connect 8 0 5 1;
#X connect 8 0 4 1;
#X connect 8 0 9 0;
#X restore 147 369 pd vol_scaler_ar;
#X obj 245 77 t b a;
#X msg 49 170 sr 44100;
#X obj 49 147 loadbang;
#X obj 62 268 list prepend 150;
#X obj 109 201 random 5;
#X obj 62 247 list prepend;
#X obj 183 212 random 150;
#X obj 92 227 + 1;
#X obj 381 22 inlet;
#X obj 351 80 list prepend open;
#X obj 334 110 list trim;
#X obj 71 335 s_looper_open \$0-snowStep 20110406-PiteaDrainpipes.wav
;
#X connect 0 0 7 0;
#X connect 3 0 18 0;
#X connect 4 0 11 0;
#X connect 4 0 13 0;
#X connect 5 0 6 2;
#X connect 6 0 1 0;
#X connect 6 1 2 0;
#X connect 7 0 4 0;
#X connect 7 1 5 1;
#X connect 8 0 18 0;
#X connect 9 0 8 0;
#X connect 10 0 3 0;
#X connect 11 0 14 0;
#X connect 12 0 10 0;
#X connect 13 0 12 1;
#X connect 14 0 12 0;
#X connect 15 0 16 0;
#X connect 16 0 17 0;
#X connect 17 0 18 0;
#X connect 18 0 6 0;
#X connect 18 0 6 1;
#X connect 18 2 5 0;
#X restore 158 334 pd tapfieldplayer;
#N canvas 642 116 491 523 tapfieldplayer 0;
#X obj 28 19 inlet;
#X obj 23 477 outlet~;
#X obj 131 478 outlet~;
#X obj 62 290 list prepend playdiv;
#X obj 200 112 bng 15 250 50 0 empty empty empty 17 7 0 10 -262144
-1 -1;
#N canvas 1144 170 516 558 env_perc 0;
#X obj 198 412 outlet~;
#X obj 13 16 inlet;
#X obj 196 327 / 127;
#X obj 196 366 t a a;
#X obj 157 260 * 127;
#X msg 116 280 60;
#X obj 116 301 makenote 60 200;
#X obj 349 21 inlet;
#X text 340 43 volume (0-1);
#X text 59 15 trigger - start envelope;
#X msg 16 102 1;
#X obj 31 124 *;
#X obj 57 106 loadbang;
#X msg 57 125 1;
#X text 6 53 handle the volume scaling.;
#X text 249 287 setup a midi note (on then off);
#X text 325 355 calculate and send the env;
#X text 41 515 percussive envelope generator - cpm 2012;
#X obj 448 23 inlet;
#X text 214 222 calculate a changing length;
#X obj 16 80 t b b;
#X obj 117 209 t b a b;
#X obj 198 272 + 50;
#X floatatom 305 265 5 0 0 0 - - -;
#X obj 199 248 random 250;
#X obj 198 389 c_adsr 1 20 200 100 450;
#X connect 1 0 20 0;
#X connect 2 0 3 0;
#X connect 3 0 25 0;
#X connect 3 1 25 1;
#X connect 4 0 6 1;
#X connect 5 0 6 0;
#X connect 6 1 2 0;
#X connect 7 0 11 1;
#X connect 10 0 11 0;
#X connect 11 0 21 0;
#X connect 12 0 13 0;
#X connect 13 0 11 1;
#X connect 18 0 22 1;
#X connect 20 0 10 0;
#X connect 21 0 5 0;
#X connect 21 1 4 0;
#X connect 21 2 24 0;
#X connect 22 0 6 2;
#X connect 22 0 23 0;
#X connect 24 0 22 0;
#X connect 25 0 0 0;
#X restore 293 410 pd env_perc;
#N canvas 0 22 450 300 vol_scaler_ar 0;
#X obj 40 20 inlet~;
#X obj 167 25 inlet~;
#X obj 34 255 outlet~;
#X obj 177 252 outlet~;
#X obj 45 118 *~;
#X obj 168 116 *~;
#X obj 283 79 loadbang;
#X msg 282 122 1;
#X obj 255 27 inlet~;
#X obj 266 244 outlet~;
#X connect 0 0 4 0;
#X connect 1 0 5 0;
#X connect 4 0 2 0;
#X connect 5 0 3 0;
#X connect 6 0 7 0;
#X connect 7 0 5 1;
#X connect 7 0 4 1;
#X connect 8 0 5 1;
#X connect 8 0 4 1;
#X connect 8 0 9 0;
#X restore 147 369 pd vol_scaler_ar;
#X obj 245 77 t b a;
#X msg 49 170 sr 44100;
#X obj 49 147 loadbang;
#X obj 62 268 list prepend 150;
#X obj 109 201 random 5;
#X obj 62 247 list prepend;
#X obj 183 212 random 150;
#X obj 92 227 + 1;
#X obj 381 22 inlet;
#X obj 351 80 list prepend open;
#X obj 334 110 list trim;
#X obj 71 335 s_looper_open \$0-snowStep 20110406-PiteaDrainpipes.wav
;
#X connect 0 0 7 0;
#X connect 3 0 18 0;
#X connect 4 0 11 0;
#X connect 4 0 13 0;
#X connect 5 0 6 2;
#X connect 6 0 1 0;
#X connect 6 1 2 0;
#X connect 7 0 4 0;
#X connect 7 1 5 1;
#X connect 8 0 18 0;
#X connect 9 0 8 0;
#X connect 10 0 3 0;
#X connect 11 0 14 0;
#X connect 12 0 10 0;
#X connect 13 0 12 1;
#X connect 14 0 12 0;
#X connect 15 0 16 0;
#X connect 16 0 17 0;
#X connect 17 0 18 0;
#X connect 18 0 6 0;
#X connect 18 0 6 1;
#X connect 18 2 5 0;
#X restore 184 358 pd tapfieldplayer;
#X obj 140 488 r randomiseSounds;
#X obj 140 513 random 3;
#X obj 140 535 sel 0 1 2;
#X obj 174 659 t a;
#X obj 174 698 s newTapSound;
#X obj 200 232 r newTapSound;
#N canvas 1049 415 450 300 sigmoid 0;
#X obj 99 18 inlet;
#X obj 112 222 outlet;
#X restore 580 584 pd sigmoid;
#X obj 362 96 + 0.06;
#X obj 360 73 / 4000;
#X obj 435 247 s_looper \$0-drainpipes 20110406-PiteaDrainpipes.wav
;
#X obj 470 287 s_looper \$0-walkambience 20111206-PiteaFirstSnowWalkAmbience.wav
;
#X msg 172 624 20111206-PiteaFirstSnowWalkAmbience.wav;
#X msg 173 580 20110406-PiteaDrainpipes.wav;
#X connect 0 0 28 0;
#X connect 1 0 42 0;
#X connect 2 0 14 0;
#X connect 2 0 10 0;
#X connect 8 0 6 0;
#X connect 8 1 7 0;
#X connect 9 0 8 2;
#X connect 11 0 8 2;
#X connect 12 0 11 0;
#X connect 13 0 19 0;
#X connect 14 0 19 0;
#X connect 14 0 9 0;
#X connect 14 0 43 0;
#X connect 14 0 44 0;
#X connect 15 0 42 0;
#X connect 16 0 43 0;
#X connect 17 0 13 0;
#X connect 17 1 16 0;
#X connect 17 2 18 0;
#X connect 18 0 44 0;
#X connect 19 0 8 0;
#X connect 19 1 8 1;
#X connect 20 0 19 0;
#X connect 20 0 43 0;
#X connect 20 0 44 0;
#X connect 21 0 20 0;
#X connect 22 1 23 1;
#X connect 25 0 24 0;
#X connect 26 0 27 0;
#X connect 27 0 17 0;
#X connect 28 0 29 0;
#X connect 28 1 31 0;
#X connect 28 2 32 0;
#X connect 28 3 33 0;
#X connect 29 0 6 0;
#X connect 29 1 7 0;
#X connect 30 0 37 0;
#X connect 31 0 6 0;
#X connect 31 1 7 0;
#X connect 32 0 6 0;
#X connect 32 1 7 0;
#X connect 33 0 6 0;
#X connect 33 1 7 0;
#X connect 34 0 35 0;
#X connect 35 0 36 0;
#X connect 36 0 46 0;
#X connect 36 1 30 0;
#X connect 36 2 45 0;
#X connect 37 0 38 0;
#X connect 39 0 29 1;
#X connect 39 0 31 1;
#X connect 39 0 32 1;
#X connect 39 0 33 1;
#X connect 41 0 12 0;
#X connect 42 0 41 0;
#X connect 43 0 8 0;
#X connect 43 1 8 1;
#X connect 44 0 8 0;
#X connect 44 1 8 1;
#X connect 44 3 22 0;
#X connect 45 0 37 0;
#X connect 46 0 37 0;
#X restore 703 278 pd field_responder;
#X obj 465 163 r autoField;
#X obj 304 169 r autoCymbal;
#X obj 140 173 r autoBowl;
#X obj 558 54 s autoField;
#X obj 434 34 bng 15 250 50 0 empty empty empty 17 7 0 10 -262144 -1
-1;
#X obj 434 53 s randomiseSounds;
#X obj 773 207 r panstarted;
#X connect 3 0 4 0;
#X connect 4 1 31 0;
#X connect 5 0 10 0;
#X connect 6 0 10 0;
#X connect 7 0 10 0;
#X connect 8 0 10 0;
#X connect 9 0 10 0;
#X connect 11 0 34 3;
#X connect 12 0 34 2;
#X connect 13 0 14 0;
#X connect 13 0 15 0;
#X connect 15 0 22 0;
#X connect 16 0 23 0;
#X connect 16 0 28 0;
#X connect 16 1 28 1;
#X connect 17 0 18 0;
#X connect 17 0 19 0;
#X connect 19 0 16 0;
#X connect 22 0 23 0;
#X connect 22 0 28 0;
#X connect 22 1 28 1;
#X connect 23 0 28 0;
#X connect 23 1 28 1;
#X connect 24 0 23 0;
#X connect 24 0 28 0;
#X connect 24 1 28 1;
#X connect 25 0 26 0;
#X connect 25 0 27 0;
#X connect 27 0 24 0;
#X connect 31 0 32 0;
#X connect 32 0 34 0;
#X connect 33 0 38 0;
#X connect 34 0 28 0;
#X connect 34 1 28 1;
#X connect 35 0 27 1;
#X connect 36 0 19 1;
#X connect 37 0 15 1;
#X connect 39 0 40 0;
#X connect 41 0 34 1;
