#N canvas 423 189 260 299 10;
#X obj 93 248 outlet;
#X obj 81 53 bng 15 250 50 0 empty empty empty 17 7 0 10 -262144 -1
-1;
#X obj 81 74 t b b;
#X obj 70 178 select;
#X obj 39 96 random 100;
#X obj 79 118 pack;
#X obj 79 145 line 50;
#X floatatom 42 145 5 0 0 0 - - -;
#X obj 119 177 / 100;
#X obj 107 96 random 10000;
#X obj 81 30 loadbang;
#X connect 1 0 2 0;
#X connect 2 0 4 0;
#X connect 2 1 9 0;
#X connect 3 0 1 0;
#X connect 4 0 3 1;
#X connect 4 0 5 0;
#X connect 5 0 6 0;
#X connect 6 0 3 0;
#X connect 6 0 7 0;
#X connect 6 0 8 0;
#X connect 8 0 0 0;
#X connect 9 0 5 1;
#X connect 10 0 1 0;
